<?xml version="1.0" encoding="UTF-8" standalone="no"?>
<svg
   height="32"
   width="32"
   viewBox="0 0 512 512"
   version="1.1"
   id="svg1"
   xml:space="preserve"
   xmlns="http://www.w3.org/2000/svg"
   xmlns:svg="http://www.w3.org/2000/svg"><defs
     id="defs1" /><!--!Font Awesome Free 6.5.1 by @fontawesome - https://fontawesome.com License - https://fontawesome.com/license/free Copyright 2023 Fonticons, Inc.--><g
     id="layer2"><path
       opacity="1"
       fill="#1e3050"
       d="M 432.79054,127.23842 V 83.881309 c 0,-11.373762 9.15031,-20.524077 20.52406,-20.524077 11.37377,0 20.52408,9.150315 20.52408,20.524077 v 95.779011 c 0,11.37374 -9.15031,20.52408 -20.52408,20.52408 h -95.779 c -11.37376,0 -20.52405,-9.15034 -20.52405,-20.52408 0,-11.37377 9.15029,-20.52409 20.52405,-20.52409 h 47.2909 c -31.6413,-49.4288 -86.97075,-82.096265 -149.91125,-82.096265 -98.259,0 -177.875285,79.616285 -177.875285,177.875285 0,98.25899 79.616285,177.87529 177.875285,177.87529 36.34472,0 70.03841,-10.86065 98.08794,-29.50336 9.40689,-6.24272 22.14893,-3.67724 28.47715,5.72965 6.32825,9.40688 3.67724,22.14888 -5.72962,28.47712 -34.63437,23.00408 -76.1956,36.34473 -120.83547,36.34473 -120.92097,0 -218.923437,-98.00243 -218.923437,-218.92343 0,-120.92097 98.002467,-218.923437 218.923437,-218.923437 73.28803,0 138.19542,36.002632 177.87529,91.246607 z m -177.87529,18.21511 c 11.37375,0 20.52407,9.15031 20.52407,20.52408 v 88.93764 c 0,5.47308 -2.13794,10.68964 -5.98619,14.53788 l -61.57221,61.57223 c -8.03858,8.0386 -21.03718,8.0386 -28.99026,0 -7.95307,-8.03861 -8.03859,-21.0372 0,-28.99028 l 55.58604,-55.58601 v -80.47146 c 0,-11.37377 9.15032,-20.52408 20.52406,-20.52408 z"
       id="path1"
       style="fill:#4b5563;fill-opacity:1;stroke-width:0.855169" /><path
       opacity="1"
       fill="#1e3050"
       d="m 438.49187,252.43894 a 19.125722,19.125722 0 1 1 38.25144,0 19.125722,19.125722 0 1 1 -38.25144,0 z"
       id="path3"
       style="fill:#4b5563;fill-opacity:1;stroke-width:0.119536" /><path
       opacity="1"
       fill="#1e3050"
       d="m 392.0195,380.72924 a 19.125722,19.125722 0 1 1 38.25143,0 19.125722,19.125722 0 1 1 -38.25143,0 z"
       id="path1-3"
       style="fill:#4b5563;fill-opacity:1;stroke-width:0.119536" /><path
       opacity="1"
       fill="#1e3050"
       d="m 426.6553,321.31818 a 19.125722,19.125722 0 1 1 38.25144,0 19.125722,19.125722 0 1 1 -38.25144,0 z"
       id="path2"
       style="fill:#4b5563;fill-opacity:1;stroke-width:0.119536" /></g></svg>
