<svg width="512" height="512" xmlns="http://www.w3.org/2000/svg" version="1.1" xml:space="preserve">
 <!--!Font Awesome Free 6.5.1 by @fontawesome - https://fontawesome.com License - https://fontawesome.com/license/free Copyright 2023 Fonticons, Inc.-->

 <g>
  <title>Layer 1</title>
  <g id="layer2">
   <path fill="#ffffff" d="m432.79053,127.23842l0,-43.35711c0,-11.37376 9.1503,-20.52408 20.52405,-20.52408c11.37378,0 20.52411,9.15032 20.52411,20.52408l0,95.77901c0,11.37373 -9.15033,20.52408 -20.52411,20.52408l-95.77899,0c-11.37375,0 -20.52405,-9.15034 -20.52405,-20.52408c0,-11.37378 9.1503,-20.52409 20.52405,-20.52409l47.29089,0c-31.6413,-49.42879 -86.97073,-82.09626 -149.91124,-82.09626c-98.259,0 -177.87531,79.61628 -177.87531,177.87527c0,98.25899 79.61629,177.87532 177.87531,177.87532c36.34471,0 70.03841,-10.86066 98.08794,-29.50336c9.40689,-6.24274 22.14893,-3.67725 28.47714,5.72961c6.32825,9.40686 3.67725,22.14886 -5.72961,28.47711c-34.63437,23.00406 -76.19559,36.34476 -120.83545,36.34476c-120.92097,0 -218.92345,-98.00247 -218.92345,-218.92345c0,-120.92096 98.00246,-218.92344 218.92345,-218.92344c73.28799,0 138.1954,36.00263 177.87527,91.2466l0,-0.00002l0,0.00003zm-177.87529,18.21512c11.37376,0 20.52406,9.1503 20.52406,20.52408l0,88.93764c0,5.47308 -2.13794,10.68964 -5.98618,14.53787l-61.57222,61.57224c-8.03857,8.0386 -21.03717,8.0386 -28.99025,0c-7.95308,-8.0386 -8.03859,-21.0372 0,-28.99026l55.58603,-55.58601l0,-80.47145c0,-11.37378 9.15033,-20.52408 20.52405,-20.52408l-0.08549,0l0,-0.00002z" id="path1" stroke-width="0.85517"/>
   <path fill="#ffffff" d="m438.49188,252.43893a19.12572,19.12572 0 1 1 38.25143,0a19.12572,19.12572 0 1 1 -38.25143,0z" id="path3" stroke-width="0.11954"/>
   <path fill="#ffffff" d="m392.0195,380.72925a19.12572,19.12572 0 1 1 38.25143,0a19.12572,19.12572 0 1 1 -38.25143,0z" id="path1-3" stroke-width="0.11954"/>
   <path fill="#ffffff" d="m426.6553,321.31818a19.12572,19.12572 0 1 1 38.25143,0a19.12572,19.12572 0 1 1 -38.25143,0z" id="path2" stroke-width="0.11954"/>
  </g>
 </g>
</svg>